<svg xmlns="http://www.w3.org/2000/svg"
     xmlns:cc="http://creativecommons.org/ns#"
     xmlns:dcterms="http://purl.org/dc/terms/"
     xmlns:rdf="http://www.w3.org/1999/02/22-rdf-syntax-ns#"
     width="128" height="128" viewBox="0 0 128 128">
  <metadata>
    <rdf:RDF>
      <cc:Work rdf:about="">
        <dcterms:format>image/svg+xml</dcterms:format>
        <dcterms:type rdf:resource="http://purl.org/dc/dcmitype/StillImage"/>
        <dcterms:license rdf:resource="http://www.apache.org/licenses/LICENSE-2.0"/>
        <dcterms:source rdf:resource="https://github.com/google/material-design-icons"/>
      </cc:Work>
    </rdf:RDF>
  </metadata>
  <style>
    g:not(#color):not(:target),
    g:target ~ #color {
      display: none;
    }
  </style>
  <symbol id="outline">
    <path d="m94 6a20 20 0 0 0-20 20 20 20 0 0 0 0.67188 5.1387l-27.764 17.584a20 20 0 0 0-12.908-4.7227 20 20 0 0 0-20 20 20 20 0 0 0 20 20 20 20 0 0 0 12.906-4.7246l27.766 17.586a20 20 0 0 0-0.67188 5.1387 20 20 0 0 0 20 20 20 20 0 0 0 20-20 20 20 0 0 0-20-20 20 20 0 0 0-12.906 4.7246l-27.766-17.586a20 20 0 0 0 0.67188-5.1387 20 20 0 0 0-0.67188-5.1387l27.764-17.584a20 20 0 0 0 12.908 4.7227 20 20 0 0 0 20-20 20 20 0 0 0-20-20z"/>
  </symbol>
  <symbol id="line">
    <path d="m90.789 20.932-60 38 3.2109 5.0684-3.2109 5.0684 60 38 6.4219-10.137-51.998-32.932 51.998-32.932-6.4219-10.137z"/>
  </symbol>
  <symbol id="dot">
    <path d="m94 6a20 20 0 0 0-20 20 20 20 0 0 0 20 20 20 20 0 0 0 20-20 20 20 0 0 0-20-20zm-60 38a20 20 0 0 0-20 20 20 20 0 0 0 20 20 20 20 0 0 0 20-20 20 20 0 0 0-20-20zm60 38a20 20 0 0 0-20 20 20 20 0 0 0 20 20 20 20 0 0 0 20-20 20 20 0 0 0-20-20z"/>
  </symbol>
  <g id="current" fill="context-fill currentColor">
    <use href="#outline"/>
  </g>
  <g id="dark" fill="context-fill rgb(91,91,102)">
    <use href="#outline"/>
  </g>
  <g id="light" fill="context-fill rgb(251,251,254)">
    <use href="#outline"/>
  </g>
  <g id="color">
    <use href="#line" fill="#002147"/>
    <use href="#dot" fill="#e66000"/>
  </g>
</svg>
