<svg xmlns="http://www.w3.org/2000/svg"
     xmlns:cc="http://creativecommons.org/ns#"
     xmlns:dcterms="http://purl.org/dc/terms/"
     xmlns:rdf="http://www.w3.org/1999/02/22-rdf-syntax-ns#"
     width="128" height="128" viewBox="0 0 128 128">
  <metadata>
    <rdf:RDF>
      <cc:Work rdf:about="">
        <dcterms:format>image/svg+xml</dcterms:format>
        <dcterms:type rdf:resource="http://purl.org/dc/dcmitype/StillImage"/>
        <dcterms:license rdf:resource="http://www.apache.org/licenses/LICENSE-2.0"/>
        <dcterms:source rdf:resource="https://github.com/google/material-design-icons"/>
      </cc:Work>
    </rdf:RDF>
  </metadata>
  <style>
    g:not(#color):not(:target),
    g:target ~ #color {
      display: none;
    }
  </style>
  <symbol id="line">
    <path d="M 90.789062 20.931641 L 30.789062 58.931641 L 34 64
             L 30.789062 69.068359 L 90.789062 107.06836
             L 97.210938 96.931641 L 45.212891 64
             L 97.210938 31.068359 L 90.789062 20.931641 z"/>
  </symbol>
  <symbol id="dot">
    <path d="M 94 6 A 20 20 0 0 0 74 26 A 20 20 0 0 0 94 46
             A 20 20 0 0 0 114 26 A 20 20 0 0 0 94 6 z
             M 34 44 A 20 20 0 0 0 14 64 A 20 20 0 0 0 34 84
             A 20 20 0 0 0 54 64 A 20 20 0 0 0 34 44 z
             M 94 82 A 20 20 0 0 0 74 102 A 20 20 0 0 0 94 122
             A 20 20 0 0 0 114 102 A 20 20 0 0 0 94 82 z"/>
  </symbol>
  <g id="context" fill="context-fill" fill-opacity="context-fill-opacity">
    <use href="#line"/>
    <use href="#dot"/>
  </g>
  <g id="photon_gray_90" fill="#0C0C0D">
    <use href="#line"/>
    <use href="#dot"/>
  </g>
  <g id="photon_gray_10" fill="#F9F9FA">
    <use href="#line"/>
    <use href="#dot"/>
  </g>
  <g id="black" fill="#000">
    <use href="#line"/>
    <use href="#dot"/>
  </g>
  <g id="neutral" fill="#808080">
    <use href="#line"/>
    <use href="#dot"/>
  </g>
  <g id="gray" fill="#4C4C4C">
    <use href="#line"/>
    <use href="#dot"/>
  </g>
  <g id="white" fill="#FFF">
    <use href="#line"/>
    <use href="#dot"/>
  </g>
  <g id="off" fill="ButtonShadow">
    <use href="#line"/>
    <use href="#dot"/>
  </g>
  <g id="color">
    <use href="#line" fill="#002147"/>
    <use href="#dot" fill="#E66000"/>
  </g>
</svg>
